# xmcd
#
# Track frame offsets:
#	150
#	16984
#	34366
#	59686
#	78795
#	95208
#	112377
#	131378
#	148378
#	164019
#	183858
#	204351
#	220117
#	233987
#	252484
#	269046
#	287590
#	305396
#	327193
#	342971
#
# Disc length: 4793 seconds
#
# Revision: 0
# Processed by: cddbd v1.5.2PL0 Copyright (c) Steve Scherf et al.
# Submitted via: audiograbber 1.83.01
#
DISCID=3c12b714
DTITLE=Various Artist - 100 R&B Classics The Anthems
DYEAR=2008
DGENRE=R&B
TTITLE0=NEW EDITION - CANDY GIRL
TTITLE1=PATRICIA RUSHEN - FORGET ME NOTS
TTITLE2=CHAKA KHAN - I FEEL FOR YOU
TTITLE3=NARADA MICHAEL WALDEN - I SHOULDA LOVED YA
TTITLE4=CHIC - EVERYBODY DANCE
TTITLE5=SLAVE - JUST A TOUCH OF LOVE
TTITLE6=ROCHELLE - MY MAGIC MAN
TTITLE7=JOYCE SIMS - COME INTO MY LIFE
TTITLE8=STEVE ARRINGTON - FEEL SO REAL
TTITLE9=LEVERT - CASANOVA
TTITLE10=JADE - DON'T WALK AWAY
TTITLE11=GROOVE THEORY - TELL ME
TTITLE12=THE FAMILY STAND - KEEPIN YOU SATIDFIED
TTITLE13=SHOLA AMA - YOU MIGHT NEED SOMEBODY
TTITLE14=SIMPLY RED - ANGEL
TTITLE15=KEITH SWEAT - TWISTED
TTITLE16=JODY WATLEY - EVERYTHING YOU DO
TTITLE17=TEVIN CAMPBELL - ROUND AND ROUND
TTITLE18=GERALD LEVERT - DJ DON'T
TTITLE19=ADINA HOWARD - MY UP AND DOWN
EXTD=
EXTT0=
EXTT1=
EXTT2=
EXTT3=
EXTT4=
EXTT5=
EXTT6=
EXTT7=
EXTT8=
EXTT9=
EXTT10=
EXTT11=
EXTT12=
EXTT13=
EXTT14=
EXTT15=
EXTT16=
EXTT17=
EXTT18=
EXTT19=
PLAYORDER=
